<svg width="25" height="24" viewBox="0 0 25 24" fill="none" xmlns="http://www.w3.org/2000/svg">
<path d="M22.3381 8.44501C22.3371 8.44401 22.3381 8.44401 22.3381 8.44501C22.3361 8.44401 22.3361 8.44301 22.3351 8.44101C22.3341 8.44101 22.3341 8.44001 22.3341 8.44001C22.2711 8.34701 22.1891 8.26801 22.0991 8.21101L12.9351 2.13101C12.6801 1.95601 12.2911 1.95601 12.0371 2.13101L2.87115 8.21401C2.77815 8.27101 2.69615 8.35101 2.63315 8.44501C2.54015 8.58501 2.49715 8.74201 2.50015 8.89701V15.057C2.49715 15.21 2.54015 15.366 2.63115 15.505C2.63215 15.506 2.63215 15.507 2.63315 15.508C2.63615 15.514 2.64015 15.518 2.64315 15.523V15.525C2.64415 15.525 2.64415 15.525 2.64415 15.525C2.64515 15.525 2.64515 15.525 2.64515 15.526C2.64615 15.526 2.64615 15.527 2.64615 15.527C2.70915 15.615 2.78615 15.687 2.87215 15.742L12.0371 21.824C12.1651 21.912 12.3191 21.963 12.4851 21.963C12.6541 21.963 12.8081 21.912 12.9351 21.824L22.1001 15.742C22.1911 15.684 22.2721 15.608 22.3351 15.513C22.4291 15.372 22.4741 15.213 22.4711 15.057V8.89701C22.4741 8.74201 22.4301 8.58501 22.3381 8.44501ZM13.2811 4.27301L20.2341 8.88601L17.0511 10.998L13.2801 8.46201V4.27301H13.2811ZM11.6891 4.27301V8.46201L7.91815 10.998L4.73715 8.88701L11.6891 4.27301ZM4.09415 10.371L6.48915 11.961L4.09415 13.572V10.371ZM11.6891 19.682L4.72915 15.065L7.92415 12.915L11.6891 15.413V19.682ZM12.4841 14.029L9.35615 11.951L12.4841 9.84601L15.6151 11.951L12.4841 14.029ZM13.2811 19.682V15.412L17.0471 12.914L20.2401 15.064L13.2811 19.682ZM20.8781 13.572L18.4821 11.961L20.8781 10.371V13.572Z" fill="#9CA3AF"/>
</svg>
