<svg width="25" height="24" viewBox="0 0 25 24" fill="none" xmlns="http://www.w3.org/2000/svg">
<path d="M21.4461 8.30499C21.4351 7.54799 21.2951 6.79699 21.0271 6.08899C20.5581 4.87999 19.6031 3.92399 18.3941 3.45599C17.6951 3.19299 16.9561 3.05199 16.2081 3.03599C15.2461 2.99299 14.9411 2.98099 12.4991 2.98099C10.0571 2.98099 9.74409 2.98099 8.78909 3.03599C8.04209 3.05199 7.30309 3.19299 6.60409 3.45599C5.39509 3.92399 4.43909 4.87999 3.97109 6.08899C3.70809 6.78799 3.56609 7.52699 3.55209 8.27399C3.50909 9.23699 3.49609 9.54199 3.49609 11.984C3.49609 14.426 3.49609 14.738 3.55209 15.694C3.56709 16.442 3.70809 17.18 3.97109 17.881C4.44009 19.089 5.39509 20.045 6.60509 20.513C7.30109 20.785 8.04009 20.939 8.79009 20.963C9.75309 21.006 10.0581 21.019 12.5001 21.019C14.9421 21.019 15.2551 21.019 16.2101 20.963C16.9571 20.948 17.6961 20.807 18.3961 20.544C19.6051 20.075 20.5601 19.119 21.0291 17.911C21.2921 17.211 21.4331 16.473 21.4481 15.724C21.4911 14.762 21.5041 14.457 21.5041 12.014C21.5021 9.57199 21.5021 9.26199 21.4461 8.30499ZM12.4931 16.602C9.93909 16.602 7.87009 14.533 7.87009 11.979C7.87009 9.42499 9.93909 7.35599 12.4931 7.35599C15.0451 7.35599 17.1161 9.42499 17.1161 11.979C17.1161 14.533 15.0451 16.602 12.4931 16.602ZM17.3001 8.26299C16.7031 8.26299 16.2221 7.78099 16.2221 7.18499C16.2221 6.58899 16.7031 6.10699 17.3001 6.10699C17.8951 6.10699 18.3771 6.58899 18.3771 7.18499C18.3771 7.78099 17.8951 8.26299 17.3001 8.26299Z" fill="#9CA3AF"/>
<path d="M12.4932 14.982C14.1517 14.982 15.4962 13.6375 15.4962 11.979C15.4962 10.3205 14.1517 8.97601 12.4932 8.97601C10.8347 8.97601 9.49023 10.3205 9.49023 11.979C9.49023 13.6375 10.8347 14.982 12.4932 14.982Z" fill="#9CA3AF"/>
</svg>
