<svg width="25" height="24" viewBox="0 0 25 24" fill="none" xmlns="http://www.w3.org/2000/svg">
<path d="M20.5 3H4.5C3.947 3 3.5 3.448 3.5 4V20C3.5 20.552 3.947 21 4.5 21H20.5C21.053 21 21.5 20.552 21.5 20V4C21.5 3.448 21.053 3 20.5 3ZM8.839 18.337H6.167V9.747H8.839V18.337ZM7.503 8.574C6.647 8.574 5.955 7.88 5.955 7.026C5.955 6.172 6.646 5.478 7.503 5.478C8.357 5.478 9.051 6.171 9.051 7.026C9.051 7.881 8.357 8.574 7.503 8.574ZM18.838 18.337H16.169V14.16C16.169 13.164 16.151 11.883 14.781 11.883C13.391 11.883 13.18 12.969 13.18 14.09V18.338H10.513V9.748H13.073V10.922H13.11C13.465 10.247 14.337 9.535 15.634 9.535C18.338 9.535 18.837 11.313 18.837 13.627L18.838 18.337Z" fill="#9CA3AF"/>
</svg>
