<svg width="25" height="24" viewBox="0 0 25 24" fill="none" xmlns="http://www.w3.org/2000/svg">
<path d="M20.133 7.99701C20.146 8.17201 20.146 8.34601 20.146 8.52001C20.146 13.845 16.093 19.981 8.686 19.981C6.404 19.981 4.284 19.32 2.5 18.172C2.824 18.209 3.136 18.222 3.473 18.222C5.356 18.222 7.089 17.586 8.474 16.501C6.703 16.464 5.219 15.304 4.707 13.708C4.956 13.745 5.206 13.77 5.468 13.77C5.829 13.77 6.192 13.72 6.529 13.633C4.682 13.259 3.299 11.638 3.299 9.68001V9.63001C3.836 9.92901 4.459 10.116 5.119 10.141C4.034 9.41901 3.323 8.18401 3.323 6.78701C3.323 6.03901 3.522 5.35301 3.871 4.75501C5.854 7.19801 8.835 8.79501 12.177 8.97001C12.115 8.67001 12.077 8.35901 12.077 8.04701C12.077 5.82701 13.873 4.01901 16.105 4.01901C17.265 4.01901 18.312 4.50501 19.048 5.29101C19.958 5.11601 20.83 4.77901 21.604 4.31801C21.305 5.25301 20.668 6.03901 19.833 6.53801C20.644 6.45001 21.43 6.22601 22.152 5.91401C21.604 6.71201 20.919 7.42301 20.133 7.99701Z" fill="#9CA3AF"/>
</svg>
